<?xml version="1.0" standalone="no"?>
<!DOCTYPE svg PUBLIC "-//W3C//DTD SVG 20010904//EN"
 "http://www.w3.org/TR/2001/REC-SVG-20010904/DTD/svg10.dtd">
<svg version="1.0" xmlns="http://www.w3.org/2000/svg"
 width="4096.000000pt" height="4096.000000pt" viewBox="0 0 4096.000000 4096.000000"
 preserveAspectRatio="xMidYMid meet">
<metadata>
Created by potrace 1.14, written by Peter Selinger 2001-2017
</metadata>
<g transform="translate(0.000000,4096.000000) scale(0.100000,-0.100000)"
fill="#000000" stroke="none">
<path d="M22957 35834 c-1 -1 -47 -5 -102 -8 -55 -4 -109 -9 -120 -11 -11 -2
-38 -6 -60 -9 -51 -6 -184 -33 -255 -52 -30 -9 -62 -17 -70 -19 -8 -2 -49 -14
-90 -28 -261 -87 -475 -195 -695 -350 -131 -93 -197 -149 -331 -282 -281 -279
-482 -596 -614 -972 -31 -88 -85 -284 -94 -343 -3 -19 -14 -75 -25 -125 -11
-49 -23 -106 -26 -125 -3 -19 -13 -69 -21 -110 -33 -157 -75 -370 -81 -400 -2
-14 -20 -104 -39 -200 -20 -96 -38 -186 -40 -200 -3 -14 -16 -77 -29 -140 -13
-63 -26 -131 -30 -150 -3 -19 -10 -55 -15 -80 -5 -25 -12 -56 -14 -70 -3 -14
-19 -95 -36 -180 -17 -85 -34 -166 -36 -180 -3 -14 -17 -81 -30 -150 -14 -69
-28 -136 -30 -150 -6 -33 -6 -32 -54 -270 -23 -113 -44 -216 -46 -230 -3 -14
-20 -100 -39 -192 -19 -92 -37 -182 -40 -200 -3 -18 -14 -76 -25 -128 -11 -52
-22 -111 -25 -130 -3 -19 -11 -55 -16 -80 -6 -25 -13 -56 -15 -70 -3 -14 -20
-100 -39 -192 -19 -92 -37 -182 -40 -200 -4 -18 -31 -157 -61 -308 -31 -151
-58 -286 -60 -300 -2 -14 -11 -54 -19 -90 -8 -36 -17 -81 -20 -100 -3 -19 -22
-114 -41 -210 -42 -205 -42 -206 -49 -245 -8 -48 -14 -75 -30 -148 -8 -37 -17
-82 -20 -100 -3 -18 -8 -39 -10 -47 -2 -8 -7 -31 -10 -50 -3 -19 -31 -159 -61
-310 -31 -151 -57 -286 -60 -300 -2 -14 -7 -36 -10 -50 -3 -14 -8 -36 -10 -50
-3 -14 -7 -34 -8 -45 -2 -11 -7 -31 -10 -45 -3 -14 -8 -36 -10 -50 -3 -14 -19
-95 -36 -180 -17 -85 -34 -166 -36 -180 -3 -14 -16 -81 -30 -150 -14 -69 -28
-135 -30 -147 -2 -13 -6 -33 -8 -45 -6 -33 -46 -230 -51 -249 -2 -9 -6 -32 -9
-50 -3 -19 -20 -101 -36 -184 -17 -82 -33 -161 -36 -175 -2 -14 -11 -54 -19
-90 -8 -36 -17 -81 -20 -100 -3 -19 -22 -114 -41 -210 -42 -205 -42 -206 -49
-245 -8 -48 -14 -75 -30 -148 -8 -37 -17 -82 -20 -100 -3 -18 -8 -39 -10 -47
-2 -8 -7 -31 -10 -50 -3 -19 -31 -159 -61 -310 -31 -151 -58 -286 -60 -300 -2
-14 -11 -54 -19 -90 -8 -36 -17 -81 -20 -100 -3 -19 -14 -78 -25 -130 -11 -52
-22 -111 -25 -130 -3 -19 -11 -55 -16 -80 -6 -25 -13 -56 -15 -70 -3 -14 -20
-100 -39 -192 -19 -92 -37 -182 -40 -200 -3 -18 -22 -112 -41 -208 -20 -96
-38 -186 -40 -200 -3 -14 -16 -77 -29 -140 -13 -63 -26 -131 -30 -150 -3 -19
-10 -55 -15 -80 -5 -25 -12 -56 -14 -70 -3 -14 -19 -95 -36 -180 -17 -85 -34
-166 -36 -180 -3 -14 -17 -81 -30 -150 -14 -69 -28 -135 -30 -147 -6 -36 -12
-64 -24 -123 -6 -30 -13 -66 -16 -80 -2 -14 -7 -36 -10 -50 -3 -14 -8 -36 -10
-50 -2 -14 -7 -36 -10 -50 -3 -14 -8 -36 -10 -50 -3 -14 -12 -59 -20 -100 -9
-41 -18 -86 -20 -100 -3 -14 -16 -80 -30 -146 -14 -67 -27 -134 -30 -150 -2
-16 -13 -72 -24 -124 -11 -52 -21 -106 -24 -120 -2 -14 -18 -95 -36 -180 -17
-85 -33 -166 -36 -180 -4 -21 -107 -534 -120 -595 -2 -11 -6 -33 -9 -50 -10
-62 -14 -83 -40 -205 -15 -69 -29 -138 -32 -155 -2 -16 -11 -61 -20 -100 -8
-38 -17 -81 -19 -95 -2 -14 -11 -56 -20 -95 -16 -75 -21 -102 -29 -150 -8 -48
-14 -75 -30 -148 -8 -37 -17 -82 -20 -100 -3 -18 -8 -39 -10 -47 -2 -8 -7 -31
-10 -50 -3 -19 -31 -159 -61 -310 -31 -151 -58 -286 -60 -300 -2 -14 -7 -38
-11 -55 -4 -16 -8 -34 -9 -40 -1 -5 -6 -35 -13 -65 -6 -30 -13 -66 -15 -80 -3
-14 -28 -140 -56 -280 -28 -140 -53 -266 -56 -280 -3 -14 -30 -149 -60 -300
-31 -151 -58 -286 -60 -300 -3 -14 -16 -77 -29 -140 -13 -63 -26 -131 -30
-150 -3 -19 -10 -55 -15 -80 -5 -25 -12 -56 -14 -70 -3 -14 -19 -95 -36 -180
-17 -85 -34 -166 -36 -180 -3 -14 -17 -81 -30 -150 -14 -69 -28 -135 -30 -147
-6 -36 -12 -64 -24 -123 -6 -30 -13 -66 -16 -80 -2 -14 -7 -36 -10 -50 -3 -14
-8 -36 -10 -50 -2 -14 -7 -36 -10 -50 -3 -14 -8 -36 -10 -50 -3 -14 -12 -59
-20 -100 -9 -41 -18 -86 -20 -100 -3 -14 -16 -80 -30 -146 -14 -67 -27 -134
-30 -150 -2 -16 -13 -72 -24 -124 -11 -52 -22 -107 -25 -122 -12 -63 -16 -87
-31 -158 -9 -41 -18 -86 -20 -100 -2 -14 -7 -38 -11 -55 -10 -43 -10 -46 -17
-87 -3 -21 -11 -59 -17 -85 -6 -27 -13 -59 -15 -73 -2 -14 -7 -36 -10 -50 -3
-14 -8 -36 -10 -50 -2 -14 -7 -36 -10 -50 -3 -14 -8 -36 -10 -50 -2 -14 -7
-36 -10 -50 -3 -14 -8 -36 -10 -50 -3 -14 -12 -59 -20 -100 -9 -41 -18 -86
-20 -100 -3 -14 -21 -104 -40 -200 -20 -96 -37 -186 -40 -200 -2 -14 -7 -36
-10 -50 -3 -14 -8 -36 -10 -50 -3 -14 -11 -56 -20 -95 -16 -75 -21 -102 -29
-150 -8 -48 -14 -75 -30 -148 -8 -37 -17 -82 -20 -100 -3 -18 -8 -39 -10 -47
-2 -8 -7 -31 -10 -50 -3 -19 -31 -159 -61 -310 -31 -151 -58 -286 -60 -300 -2
-14 -11 -54 -19 -90 -8 -36 -17 -81 -20 -100 -3 -19 -14 -78 -25 -130 -11 -52
-22 -111 -25 -130 -3 -19 -11 -55 -16 -80 -6 -25 -13 -56 -15 -70 -3 -14 -20
-100 -39 -192 -19 -92 -37 -182 -40 -200 -4 -18 -31 -157 -61 -308 -31 -151
-58 -286 -60 -300 -2 -14 -11 -54 -19 -90 -8 -36 -17 -81 -20 -100 -3 -19 -22
-114 -41 -210 -42 -205 -42 -206 -49 -245 -8 -48 -14 -75 -30 -148 -8 -37 -17
-82 -20 -100 -3 -18 -8 -39 -10 -47 -2 -8 -7 -31 -10 -50 -3 -19 -31 -159 -61
-310 -31 -151 -57 -286 -60 -300 -2 -14 -7 -36 -10 -50 -3 -14 -8 -34 -10 -45
-5 -31 -12 -65 -24 -125 -6 -30 -13 -73 -16 -95 -3 -22 -7 -46 -9 -53 -12 -34
-20 -186 -20 -352 1 -207 7 -294 31 -430 4 -19 8 -44 9 -55 13 -91 88 -344
145 -485 40 -102 149 -309 216 -412 57 -88 146 -212 164 -228 3 -3 28 -32 55
-65 297 -356 761 -651 1235 -784 74 -21 155 -42 180 -46 25 -4 54 -9 65 -12
247 -55 686 -50 975 12 14 2 34 7 45 9 54 11 159 40 238 67 750 249 1336 822
1608 1571 45 126 106 369 136 543 2 17 11 62 20 100 8 39 17 81 19 95 4 21 14
72 39 191 2 9 6 33 9 53 3 19 11 57 17 83 6 27 13 59 15 73 2 14 7 36 10 50 3
14 8 36 10 50 2 14 7 36 10 50 3 14 8 36 10 50 2 14 7 36 10 50 3 14 8 36 10
50 3 14 12 59 20 100 9 41 18 86 20 100 3 14 16 81 30 150 13 69 27 141 30
160 3 19 8 38 10 41 2 4 6 24 9 45 4 22 8 47 11 56 3 10 7 29 10 43 2 14 6 36
9 50 3 14 7 37 10 53 3 15 13 61 21 102 9 41 18 86 20 100 2 14 7 36 10 50 8
35 12 52 18 94 3 19 11 57 17 83 6 27 13 62 16 78 4 26 11 58 38 186 2 9 6 33
9 53 3 19 11 57 17 83 14 62 16 74 23 114 3 19 19 102 37 184 17 83 33 164 36
180 2 17 11 62 20 100 8 39 16 81 19 95 2 14 7 36 10 50 3 14 8 36 10 50 3 14
12 59 20 100 9 41 18 86 20 100 3 14 12 59 20 100 9 41 18 85 20 98 2 12 6 32
8 45 6 32 46 229 51 248 2 9 6 33 9 53 3 19 11 57 17 83 14 62 16 74 23 114 3
19 19 102 37 184 17 83 33 164 36 180 2 17 11 62 20 100 8 39 16 80 19 93 2
12 6 33 9 47 3 14 7 37 10 52 3 16 13 62 21 103 9 41 18 86 20 100 2 14 7 36
10 50 8 35 12 52 18 94 3 19 11 57 17 83 6 27 13 59 15 73 2 14 7 36 10 50 3
14 8 36 10 50 2 14 7 36 10 50 3 14 8 36 10 50 2 14 7 36 10 50 3 14 8 36 10
50 3 14 12 59 20 100 9 41 18 86 20 100 3 14 16 80 30 146 14 67 27 134 30
150 2 16 13 72 24 124 11 52 22 107 25 122 12 63 16 87 31 158 9 41 18 86 20
100 2 14 7 36 10 50 8 35 12 52 18 94 3 19 11 57 17 83 6 27 13 59 15 73 2 14
7 36 10 50 3 14 8 36 10 50 2 14 7 36 10 50 3 14 8 36 10 50 2 14 7 36 10 50
3 14 8 36 10 50 3 14 12 59 20 100 9 41 18 86 20 100 3 14 16 81 30 150 13 69
27 141 30 160 3 19 8 38 10 41 2 4 6 24 9 45 4 22 8 47 11 56 3 10 7 30 10 45
3 16 21 107 40 203 19 96 37 186 40 200 2 14 16 81 30 150 14 69 28 136 30
150 2 14 7 36 10 50 3 14 8 36 10 50 2 14 7 36 10 50 3 14 8 36 10 50 3 14 12
59 20 100 9 41 18 86 20 100 3 14 16 81 30 150 13 69 27 141 30 160 3 19 8 38
10 41 2 4 6 24 9 45 4 22 8 47 11 56 3 10 7 30 10 45 2 16 11 57 19 93 8 36
16 80 19 98 4 17 8 47 12 65 3 17 10 52 15 77 14 61 16 72 23 114 3 19 11 57
17 83 6 27 13 59 15 73 2 14 7 36 10 50 3 14 8 36 10 50 2 14 7 36 10 50 3 14
8 36 10 50 2 14 7 36 10 50 3 14 8 36 10 50 3 14 12 59 20 100 9 41 18 86 20
100 3 14 16 81 30 150 13 69 27 141 30 160 3 19 8 38 10 41 2 4 6 24 9 45 4
22 8 47 11 56 3 10 7 30 10 45 3 16 21 107 40 203 19 96 37 186 40 200 5 27
73 364 79 391 2 9 6 33 9 53 3 19 11 57 17 83 14 62 16 74 23 114 3 19 19 102
37 184 17 83 33 164 36 180 2 17 11 62 20 100 8 39 17 84 20 100 2 17 11 62
20 100 8 39 17 81 19 95 3 14 20 100 39 192 19 92 37 182 40 200 3 18 22 112
41 208 20 96 38 186 40 200 3 14 16 77 29 140 13 63 26 131 30 150 3 19 10 55
15 80 5 25 12 56 14 70 3 14 19 95 36 180 17 85 34 166 36 180 3 14 17 81 30
150 14 69 28 135 30 148 6 33 9 48 54 272 23 113 44 215 46 228 3 13 20 103
40 200 19 97 37 193 40 212 3 19 8 38 10 41 2 4 6 24 9 45 4 22 8 47 11 56 3
10 7 30 10 45 2 16 11 57 19 93 8 36 16 80 19 98 4 17 8 47 12 65 3 17 10 52
15 77 14 61 16 72 23 114 3 19 11 57 17 83 6 27 13 59 15 73 2 14 7 36 10 50
3 14 8 36 10 50 2 14 7 36 10 50 3 14 8 36 10 50 2 14 7 36 10 50 3 14 8 36
10 50 3 14 12 59 20 100 9 41 18 86 20 100 3 14 16 81 30 150 13 69 27 141 30
160 3 19 8 38 10 41 2 4 6 24 9 45 4 22 8 47 11 56 3 10 7 30 10 45 3 16 21
107 40 203 19 96 37 186 40 200 5 27 73 364 79 391 2 9 6 33 9 53 3 19 11 57
17 83 14 62 16 74 23 114 3 19 19 102 37 184 17 83 33 164 36 180 2 17 11 62
20 100 8 39 17 81 19 95 3 14 21 104 40 200 19 96 38 186 40 200 4 20 105 522
119 591 2 9 6 32 9 50 3 19 19 102 37 184 17 83 33 164 36 180 2 17 11 62 20
100 8 39 17 81 19 95 3 14 21 104 40 200 19 96 37 186 40 200 2 14 16 81 30
150 14 69 28 136 30 150 2 14 7 36 10 50 3 14 8 36 10 50 2 14 7 36 10 50 3
14 8 36 10 50 3 14 12 59 20 100 9 41 18 86 20 100 3 14 16 81 30 150 13 69
27 141 30 160 3 19 8 38 10 41 2 4 6 24 9 45 4 22 8 47 11 56 3 10 7 30 10 45
2 16 11 57 19 93 8 36 16 80 19 98 4 17 8 47 12 65 3 17 10 52 15 77 14 61 16
72 23 114 3 19 11 57 17 83 6 27 13 59 15 73 2 14 7 36 10 50 3 14 8 36 10 50
2 14 7 36 10 50 3 14 8 36 10 50 2 14 7 36 10 50 3 14 8 36 10 50 3 14 12 59
20 100 9 41 18 86 20 100 3 14 16 81 30 150 13 69 27 141 30 160 3 19 8 38 10
41 2 4 6 24 9 45 4 22 8 47 11 56 3 10 7 30 10 45 3 16 21 107 40 203 19 96
37 186 40 200 5 27 73 364 79 391 2 9 6 33 9 53 3 19 11 57 17 83 14 62 16 74
23 114 3 19 19 102 36 184 18 83 33 160 36 173 2 12 6 34 9 50 31 154 43 312
39 517 -2 116 -5 221 -8 235 -2 14 -7 48 -11 75 -34 267 -145 607 -280 861
-52 97 -190 303 -272 404 -86 106 -257 278 -365 365 -225 181 -533 352 -778
431 -25 8 -54 19 -65 24 -52 23 -306 78 -434 94 -107 14 -415 28 -424 20z"/>
<path d="M31788 30725 c-2 -2 -30 -6 -63 -10 -33 -3 -71 -8 -85 -10 -14 -2
-43 -6 -65 -10 -23 -3 -52 -8 -65 -11 -14 -3 -38 -8 -54 -10 -76 -14 -285 -77
-390 -118 -258 -101 -453 -214 -678 -394 -251 -199 -482 -472 -633 -747 -49
-90 -115 -223 -115 -232 0 -5 -7 -21 -15 -36 -21 -41 -91 -249 -115 -345 -55
-219 -75 -389 -75 -632 1 -210 10 -317 41 -475 29 -149 93 -371 130 -452 8
-17 14 -33 14 -36 0 -2 10 -26 22 -53 12 -27 23 -51 23 -54 0 -3 7 -16 15 -30
8 -14 15 -27 15 -30 6 -34 149 -268 235 -385 52 -70 270 -338 392 -480 9 -11
112 -135 229 -275 117 -140 231 -277 254 -305 24 -27 116 -138 205 -245 89
-107 172 -206 183 -220 12 -14 54 -63 92 -110 39 -47 78 -94 87 -105 9 -11
159 -191 333 -400 175 -209 327 -391 338 -405 12 -14 65 -77 117 -140 52 -63
97 -117 100 -120 3 -3 25 -30 50 -60 25 -30 47 -57 50 -60 3 -3 48 -57 100
-120 52 -63 97 -117 100 -120 3 -3 56 -66 117 -140 62 -74 122 -147 135 -162
13 -14 39 -45 58 -69 49 -59 261 -315 390 -469 21 -25 156 -187 300 -360 144
-173 279 -335 300 -360 21 -25 111 -133 200 -240 89 -107 179 -215 200 -240
32 -39 541 -648 588 -705 9 -11 52 -63 96 -115 43 -52 89 -107 102 -122 l23
-27 -97 -118 c-53 -65 -99 -120 -102 -123 -4 -3 -53 -61 -110 -130 -57 -69
-108 -130 -114 -137 -6 -7 -16 -18 -21 -25 -11 -13 -513 -617 -544 -653 -9
-11 -73 -87 -141 -170 -69 -82 -135 -161 -147 -175 -11 -14 -180 -216 -375
-450 -194 -234 -363 -436 -375 -450 -20 -23 -144 -173 -232 -279 -20 -24 -76
-92 -124 -150 -49 -58 -96 -115 -105 -126 -42 -51 -118 -140 -122 -145 -3 -3
-93 -111 -200 -240 -107 -129 -204 -246 -216 -260 -22 -24 -156 -185 -239
-286 -22 -26 -56 -67 -75 -90 -19 -22 -51 -61 -71 -85 -107 -128 -266 -320
-299 -359 -21 -25 -57 -67 -80 -95 -22 -27 -49 -59 -58 -70 -10 -11 -60 -72
-112 -135 -52 -63 -97 -117 -100 -120 -4 -3 -49 -57 -100 -120 -52 -63 -99
-120 -105 -126 -5 -6 -28 -32 -50 -59 -51 -62 -346 -416 -396 -475 -348 -415
-416 -500 -496 -620 -72 -108 -157 -256 -151 -264 2 -2 -4 -12 -13 -22 -16
-19 -99 -205 -99 -222 0 -5 -7 -22 -14 -38 -8 -16 -31 -85 -51 -154 -35 -125
-40 -144 -51 -210 -3 -19 -8 -38 -9 -41 -2 -3 -7 -28 -11 -55 -3 -27 -8 -58
-10 -69 -11 -57 -19 -199 -19 -350 0 -205 8 -302 41 -470 26 -130 33 -161 44
-195 5 -14 18 -59 31 -100 119 -404 396 -837 720 -1125 79 -70 102 -89 174
-144 39 -29 77 -58 85 -64 8 -7 28 -18 43 -26 15 -8 27 -18 27 -23 0 -4 4 -8
9 -8 5 0 39 -18 75 -40 93 -57 203 -111 351 -175 102 -44 310 -106 450 -134
181 -36 281 -45 500 -46 224 0 300 7 500 45 486 93 950 339 1306 694 78 77
213 231 360 411 10 11 41 49 70 84 30 36 110 133 179 215 69 83 135 162 147
176 12 14 72 86 133 160 62 74 129 155 150 180 80 95 507 608 540 649 19 23
43 53 53 64 81 95 115 135 188 223 46 56 100 121 120 145 99 119 966 1160 999
1199 21 25 85 101 141 170 57 69 110 133 119 143 31 38 52 63 78 92 15 17 58
68 96 115 39 47 78 94 88 105 9 11 124 148 254 305 248 299 296 357 354 425
19 23 51 61 70 85 19 24 40 48 45 54 6 6 44 52 85 101 41 50 77 92 80 95 3 3
31 37 62 75 31 39 65 79 75 90 10 11 36 43 58 70 22 28 42 52 45 55 3 3 106
127 230 275 123 149 232 279 242 290 25 29 528 635 556 670 13 17 38 46 55 65
18 19 63 73 101 120 39 47 78 94 88 105 9 11 180 216 378 455 199 239 369 444
378 455 250 301 463 786 518 1180 3 22 7 45 9 52 18 56 27 460 13 603 -15 147
-44 304 -79 424 -12 38 -22 76 -24 85 -8 40 -81 226 -131 331 -111 232 -204
373 -409 621 -166 200 -318 383 -325 389 -3 3 -22 26 -43 52 -21 26 -43 53
-50 60 -7 7 -30 35 -52 63 -22 27 -50 61 -62 75 -11 14 -96 115 -188 225 -91
110 -174 209 -183 220 -10 11 -85 101 -167 200 -82 99 -152 182 -155 185 -3 3
-24 28 -45 55 -22 28 -42 52 -45 55 -3 3 -50 59 -105 125 -54 66 -106 127
-115 136 -8 9 -28 34 -45 54 -16 21 -47 59 -69 84 -21 25 -45 55 -55 66 -46
56 -426 514 -445 535 -11 14 -77 93 -146 175 -69 83 -129 155 -135 162 -5 6
-26 31 -46 55 -75 91 -212 255 -248 298 -21 25 -66 79 -100 120 -34 41 -70 84
-79 95 -9 11 -84 101 -166 200 -83 99 -157 188 -165 197 -9 9 -21 23 -26 30
-6 7 -82 99 -169 203 -87 105 -165 199 -174 210 -65 78 -118 141 -122 145 -3
3 -24 28 -45 55 -22 28 -42 52 -45 55 -3 3 -28 32 -55 65 -28 33 -52 62 -55
65 -3 3 -16 18 -29 35 -12 16 -42 52 -66 80 -23 27 -93 111 -154 185 -62 74
-131 157 -154 184 -23 27 -51 60 -62 74 -11 14 -36 44 -55 67 -51 61 -102 122
-248 297 -71 86 -135 163 -141 170 -36 42 -68 81 -119 143 -31 39 -62 75 -68
80 -6 6 -28 32 -50 60 -21 27 -47 59 -57 70 -10 11 -33 37 -50 59 -18 21 -49
60 -71 85 -21 25 -45 55 -55 66 -33 42 -216 260 -221 265 -3 3 -23 28 -45 55
-22 28 -45 55 -51 60 -6 6 -39 46 -75 90 -35 44 -66 82 -69 85 -3 3 -62 73
-130 155 -68 83 -127 152 -130 155 -3 3 -24 27 -45 55 -22 27 -45 56 -52 63
-7 7 -29 34 -50 60 -21 26 -40 49 -43 52 -3 3 -28 32 -55 65 -90 107 -99 119
-145 169 -247 277 -586 514 -935 656 -44 18 -89 36 -100 41 -87 36 -376 107
-507 124 -24 3 -59 8 -78 11 -38 6 -477 14 -482 9z"/>
<path d="M8827 30714 c-1 -1 -40 -4 -86 -8 -371 -29 -786 -163 -1101 -356
-228 -140 -389 -273 -595 -494 -6 -6 -50 -58 -99 -116 -100 -120 -91 -108
-216 -260 -52 -63 -104 -126 -117 -140 -12 -14 -61 -72 -109 -130 -118 -143
-163 -197 -204 -245 -19 -23 -51 -61 -70 -85 -19 -24 -39 -48 -45 -54 -5 -6
-44 -51 -85 -101 -41 -49 -77 -92 -80 -95 -3 -3 -23 -27 -45 -55 -21 -27 -66
-82 -100 -120 -33 -39 -75 -90 -93 -112 -19 -23 -43 -52 -54 -65 -11 -13 -37
-43 -57 -68 -20 -25 -38 -47 -41 -50 -4 -4 -334 -400 -421 -505 -10 -11 -41
-49 -70 -84 -30 -36 -112 -135 -182 -220 -71 -86 -134 -160 -141 -166 -6 -5
-32 -37 -58 -70 -25 -33 -56 -72 -70 -86 -13 -14 -42 -48 -63 -75 -22 -27 -44
-54 -50 -60 -5 -6 -26 -31 -46 -55 -20 -24 -157 -188 -303 -364 -147 -176
-295 -354 -329 -395 -34 -41 -66 -80 -72 -86 -5 -6 -28 -33 -50 -60 -22 -27
-54 -64 -70 -84 -17 -19 -48 -56 -68 -82 -21 -26 -43 -53 -50 -60 -7 -7 -81
-96 -166 -198 -84 -102 -172 -207 -196 -235 -23 -27 -64 -77 -90 -110 -26 -33
-53 -64 -59 -70 -6 -5 -29 -32 -51 -60 -45 -56 -75 -92 -90 -109 -6 -6 -123
-146 -260 -311 -137 -165 -257 -309 -267 -320 -18 -23 -122 -147 -177 -214
-20 -24 -40 -49 -46 -55 -19 -21 -102 -121 -150 -181 -27 -33 -51 -62 -54 -65
-4 -3 -38 -43 -76 -90 -38 -47 -80 -96 -92 -110 -27 -30 -284 -340 -482 -580
-80 -96 -148 -177 -151 -180 -3 -3 -25 -30 -49 -60 -25 -30 -50 -59 -56 -65
-6 -5 -28 -32 -50 -60 -46 -56 -65 -80 -96 -115 -11 -14 -38 -45 -58 -70 -20
-25 -38 -47 -41 -50 -13 -13 -164 -196 -248 -300 -77 -96 -144 -190 -229 -325
-88 -138 -238 -496 -267 -635 -3 -14 -12 -52 -20 -85 -54 -222 -78 -577 -55
-810 46 -464 209 -896 478 -1265 49 -67 176 -227 191 -240 5 -4 70 -84 110
-133 8 -11 20 -24 25 -31 6 -6 66 -78 135 -161 69 -82 135 -161 147 -175 11
-14 71 -86 133 -160 61 -74 119 -144 128 -155 9 -11 40 -47 67 -80 28 -33 52
-62 55 -65 3 -3 25 -30 50 -60 25 -30 49 -60 55 -66 5 -6 22 -27 37 -46 15
-19 37 -46 50 -59 13 -14 59 -70 103 -124 44 -54 86 -104 93 -111 6 -7 56 -66
110 -131 53 -65 107 -129 119 -143 12 -14 49 -59 83 -100 34 -41 71 -86 83
-100 13 -14 41 -47 62 -75 22 -27 45 -56 52 -63 7 -7 29 -34 50 -60 21 -26 43
-51 49 -57 6 -5 28 -32 50 -60 21 -27 41 -52 44 -55 3 -3 28 -32 55 -65 28
-33 52 -62 55 -65 3 -3 24 -27 45 -55 22 -27 42 -52 45 -55 3 -3 72 -86 154
-185 82 -99 154 -184 160 -190 6 -5 27 -30 46 -55 19 -25 37 -47 40 -50 3 -3
73 -86 155 -185 82 -99 152 -182 155 -185 3 -3 48 -57 100 -120 52 -63 104
-126 116 -140 24 -27 130 -153 154 -184 8 -10 32 -39 54 -65 21 -25 45 -55 55
-66 32 -41 116 -140 121 -145 3 -3 25 -30 50 -60 25 -30 47 -57 50 -60 3 -3
22 -26 43 -52 21 -26 43 -53 50 -60 7 -7 30 -35 52 -63 22 -27 42 -52 45 -55
3 -3 72 -86 154 -185 82 -99 154 -184 160 -190 6 -5 27 -30 46 -55 19 -25 37
-47 40 -50 3 -3 73 -86 155 -185 82 -99 152 -182 155 -185 3 -3 24 -27 45 -55
22 -27 45 -56 52 -63 7 -7 29 -34 50 -60 21 -26 43 -51 49 -57 6 -5 28 -32 50
-60 21 -27 41 -52 44 -55 3 -3 28 -32 55 -65 28 -33 52 -62 55 -65 5 -5 78
-93 110 -133 8 -11 20 -24 25 -31 6 -6 66 -78 135 -161 69 -82 127 -152 130
-155 3 -3 24 -27 45 -55 22 -27 42 -52 45 -55 3 -3 73 -86 155 -185 83 -99
160 -191 172 -205 11 -14 49 -59 83 -100 34 -41 79 -95 100 -120 21 -25 65
-79 99 -120 34 -41 72 -86 84 -100 12 -14 42 -50 67 -80 25 -30 47 -57 50 -60
3 -3 25 -30 50 -60 24 -30 60 -73 80 -96 19 -22 44 -52 54 -65 70 -89 189
-215 296 -313 69 -64 294 -234 338 -257 15 -8 42 -24 60 -36 107 -71 403 -203
556 -248 44 -13 88 -26 96 -29 8 -3 26 -8 40 -10 14 -3 68 -14 120 -25 52 -11
122 -23 155 -26 33 -4 87 -10 120 -15 62 -8 450 -6 495 3 14 3 43 8 65 11 90
12 124 18 210 37 50 12 101 23 114 25 36 7 259 83 311 106 112 49 226 103 240
113 8 6 35 21 60 35 274 146 606 444 802 721 10 13 31 42 47 65 117 166 237
412 319 659 24 70 77 290 87 355 3 25 8 56 10 70 26 174 26 568 -1 705 -7 34
-13 68 -19 115 -12 80 -73 302 -114 412 -48 129 -142 327 -199 421 -23 37 -42
69 -42 72 0 3 -7 13 -15 22 -8 10 -40 55 -72 100 -46 65 -292 368 -338 417 -5
6 -23 27 -39 46 -15 19 -45 55 -66 80 -21 25 -120 144 -220 265 -101 121 -202
243 -225 270 -24 28 -179 214 -346 415 -167 201 -311 374 -321 385 -9 11 -125
151 -258 310 -133 160 -259 310 -280 335 -138 164 -411 493 -494 594 -55 67
-105 126 -110 132 -6 6 -27 30 -46 54 -19 24 -40 48 -46 54 -6 6 -41 49 -79
96 -38 47 -71 87 -75 90 -3 3 -37 43 -75 90 -38 47 -71 87 -75 90 -3 3 -59 70
-125 150 -66 80 -122 147 -125 150 -3 3 -25 30 -50 60 -25 30 -47 57 -50 60
-3 3 -37 43 -75 90 -38 47 -72 87 -76 90 -3 3 -37 43 -74 90 -38 47 -71 87
-75 90 -3 3 -70 84 -150 180 -80 96 -147 177 -150 180 -3 3 -25 30 -50 60 -25
30 -47 57 -50 60 -3 3 -62 73 -130 155 -69 83 -132 159 -142 170 -9 11 -89
108 -178 215 -89 107 -172 206 -184 220 -119 138 -366 442 -366 450 0 9 68 99
90 120 3 3 62 73 130 155 69 83 133 159 142 170 40 48 201 242 216 260 42 51
118 140 122 145 3 3 70 84 150 180 79 96 152 184 162 195 16 18 339 406 433
519 22 27 45 54 50 60 6 6 45 54 88 106 43 52 86 104 95 115 10 11 51 60 92
110 41 49 85 101 97 115 11 14 60 72 108 130 48 58 94 114 104 125 9 11 133
160 275 330 257 308 317 380 353 421 10 12 52 63 93 114 41 51 84 102 95 114
11 12 49 57 85 101 35 44 67 82 70 85 3 3 61 73 130 155 69 83 132 159 141
170 10 11 55 65 100 120 46 55 91 109 101 120 9 11 98 119 199 240 100 121
185 222 188 225 3 3 24 28 46 55 21 28 49 61 62 75 12 14 228 273 479 575 252
303 461 552 464 555 3 3 24 28 45 55 22 28 42 52 45 55 18 16 107 140 163 227
187 288 316 624 372 968 2 11 6 36 9 55 22 131 29 519 11 640 -61 423 -162
722 -349 1036 -168 282 -445 585 -691 754 -162 111 -190 128 -337 205 -226
117 -535 218 -765 250 -154 22 -227 28 -386 29 -81 1 -149 1 -150 0z"/>
</g>
</svg>
